<?xml version="1.0" encoding="UTF-8"?>
<!DOCTYPE svg PUBLIC "-//W3C//DTD SVG 1.1//EN" "http://www.w3.org/Graphics/SVG/1.1/DTD/svg11.dtd">
<!-- Creator: CorelDRAW -->
<svg xmlns="http://www.w3.org/2000/svg" xml:space="preserve" width="6.82666in" height="6.82666in" style="shape-rendering:geometricPrecision; text-rendering:geometricPrecision; image-rendering:optimizeQuality; fill-rule:evenodd; clip-rule:evenodd"
viewBox="0 0 6.82666 6.82666"
 xmlns:xlink="http://www.w3.org/1999/xlink">
 <defs>
  <style type="text/css">
   <![CDATA[
    .fil8 {fill:none}
    .fil7 {fill:#878787}
    .fil5 {fill:#A1A1A1}
    .fil0 {fill:#CFCFD0}
    .fil6 {fill:#282929;fill-rule:nonzero}
    .fil4 {fill:#2D2D2D;fill-rule:nonzero}
    .fil2 {fill:#717171;fill-rule:nonzero}
    .fil1 {fill:#848484;fill-rule:nonzero}
    .fil3 {fill:#DADADA;fill-rule:nonzero}
   ]]>
  </style>
 </defs>
 <g id="Layer_x0020_1">
  <metadata id="CorelCorpID_0Corel-Layer"/>
  <g id="_374330168">
   <path id="_374330912" class="fil0" d="M5.5108 2.57363c0,-0.320445 -0.122244,-0.640894 -0.366724,-0.88537 -0.244476,-0.244476 -0.564925,-0.36672 -0.88537,-0.36672 -0.320445,0 -0.64089,0.122244 -0.88537,0.36672 -0.24448,0.244476 -0.366724,0.564925 -0.366724,0.88537 0,0.320445 0.122244,0.640894 0.366724,0.885374 0.24448,0.24448 0.564925,0.366724 0.88537,0.366724 0.320445,0 0.640894,-0.122244 0.88537,-0.366724 0.24448,-0.24448 0.366724,-0.564929 0.366724,-0.885374z"/>
   <path id="_374330744" class="fil1" d="M3.1722 3.81097c0.0416496,-0.0416496 0.0416496,-0.109185 0,-0.150835 -0.0416496,-0.0416496 -0.109185,-0.0416496 -0.150835,0l-0.658685 0.658689c-0.0416496,0.0416496 -0.0416496,0.109185 0,0.150835 0.0416496,0.0416496 0.109185,0.0416496 0.150835,0l0.658685 -0.658689z"/>
   <path id="_374329880" class="fil2" d="M5.47849 1.35384c0.336846,0.336839 0.505268,0.778319 0.505268,1.21979 0,0.441469 -0.168425,0.882949 -0.505268,1.21979 -0.336839,0.336846 -0.778319,0.505268 -1.21979,0.505268 -0.441469,0 -0.882945,-0.168425 -1.21979,-0.505268 -0.336843,-0.336843 -0.505268,-0.778323 -0.505268,-1.21979 0,-0.441469 0.168421,-0.882949 0.505268,-1.21979 0.336846,-0.336839 0.778319,-0.505264 1.21979,-0.505264 0.441469,0 0.882949,0.168425 1.21979,0.505264zm0.0323071 1.21979c0,-0.320445 -0.122244,-0.640894 -0.366724,-0.88537 -0.244476,-0.244476 -0.564925,-0.36672 -0.88537,-0.36672 -0.320445,0 -0.64089,0.122244 -0.88537,0.36672 -0.24448,0.244476 -0.366724,0.564925 -0.366724,0.88537 0,0.320445 0.122244,0.640894 0.366724,0.885374 0.24448,0.24448 0.564925,0.366724 0.88537,0.366724 0.320445,0 0.640894,-0.122244 0.88537,-0.366724 0.24448,-0.24448 0.366724,-0.564929 0.366724,-0.885374z"/>
   <path id="_374330600" class="fil3" d="M3.19706 2.57363c0,0.0294528 0.0238819,0.0533346 0.0533346,0.0533346 0.0294528,0 0.0533346,-0.0238819 0.0533346,-0.0533346 0,-0.263713 0.10689,-0.502465 0.279705,-0.675276 0.172811,-0.172815 0.411563,-0.279705 0.675276,-0.279705 0.0294528,0 0.0533346,-0.0238819 0.0533346,-0.0533346 0,-0.0294528 -0.0238819,-0.0533346 -0.0533346,-0.0533346 -0.293157,0 -0.558571,0.118831 -0.750693,0.310957 -0.192126,0.192122 -0.310957,0.457535 -0.310957,0.750693z"/>
   <g>
    <g>
     <path id="_374330528" class="fil4" d="M1.04287 5.88023l-0.102122 -0.102122c-0.0652323,-0.0652323 -0.0978543,-0.151094 -0.0978543,-0.236866 0,-0.0857756 0.032622,-0.171634 0.0978504,-0.23687 0.256441,-0.445075 0.842854,-0.998268 1.27985,-1.26279l0.0914331 -0.0914331 0.000590551 -0.000606299c0.0416535,-0.0416535 0.109197,-0.0416535 0.15085,0l-7.87402e-006 7.87402e-006 0.424429 0.424429 0.000606299 0.000590551c0.0416535,0.0416535 0.0416535,0.109197 0,0.15085l-7.87402e-006 -7.87402e-006 -0.0920315 0.0920315c-0.257409,0.450783 -0.828008,1.02034 -1.27985,1.26279 -0.0652323,0.0652323 -0.151094,0.0978504 -0.236866,0.0978504 -0.0857795,0 -0.171638,-0.032622 -0.23687,-0.0978543z"/>
     <path id="_374330048" class="fil5" d="M2.8885 4.52542l0 0zm-0.425028 -0.575878l0 0zm-0.0402756 0.297406l0.150835 0.150835 0.221421 0.221421c0.000338583,-0.000586614 0.000673228,-0.00117323 0.00100787,-0.00175984l0.0920394 -0.0920236c0.0416535,-0.0416535 0.0416535,-0.109197 0,-0.15085l-0.000606299 -0.000590551 -0.145031 -0.145031 -0.150835 -0.150835 -0.128555 -0.128571c-0.0416535,-0.0416535 -0.109197,-0.0416535 -0.15085,0l-0.000590551 0.000606299 -0.0914331 0.0914331c-0.000574803,0.000346457 -0.00114961,0.00069685 -0.00172441,0.00104331l0.204323 0.204323z"/>
    </g>
    <g>
     <path id="_374330144" class="fil6" d="M1.04287 5.88023l-0.0519409 -0.0519409 1.67564 -1.67564 0.221331 0.221331 0.000606299 0.000586614c0.0416535,0.0416575 0.0416535,0.109201 0,0.15085l-7.87402e-006 -3.93701e-006 -0.0920354 0.0920315c-0.257409,0.450783 -0.828008,1.02034 -1.27985,1.26279 -0.0652323,0.0652323 -0.151091,0.0978465 -0.236862,0.0978465 -0.0857795,0 -0.171638,-0.032626 -0.236874,-0.0978543z"/>
     <path id="_374330312" class="fil7" d="M2.8885 4.52542l0 0zm-0.221937 -0.372768l-0.168835 0.168835 0.0762992 0.0762992 0.221421 0.221421c0.00034252,-0.000590551 0.000677165,-0.00117323 0.00100787,-0.00175984l0.0920433 -0.0920276c0.0416535,-0.0416496 0.0416535,-0.109193 0,-0.15085l-0.000606299 -0.000586614 -0.145035 -0.145035 -0.0762953 -0.0762953z"/>
    </g>
   </g>
  </g>
 </g>
 <rect class="fil8" width="6.82666" height="6.82666"/>
</svg>
